<?xml version="1.0" encoding="UTF-8" standalone="no"?>
<!-- Created with Inkscape (http://www.inkscape.org/) -->

<svg
   width="224.92485mm"
   height="192.35951mm"
   viewBox="0 0 224.92485 192.35951"
   version="1.1"
   id="svg5"
   xml:space="preserve"
   xmlns="http://www.w3.org/2000/svg"
   xmlns:svg="http://www.w3.org/2000/svg"><defs
     id="defs2" /><path
     style="fill:#000000;stroke-width:0.120952"
     d="m 60.457245,192.2342 c -8.54762,-1.09712 -14.77,-8.14323 -14.7753,-16.73128 -0.002,-2.63038 0.55773,-5.00173 1.74826,-7.41172 0.85473,-1.73023 1.70594,-2.89391 3.21677,-4.39765 3.27658,-3.26118 7.18569,-4.88253 11.7455,-4.8716 2.45436,0.006 4.40923,0.40774 6.67608,1.37238 l 0.85487,0.36377 2.13096,-1.29017 c 9.6719,-5.85583 19.23846,-13.50997 27.21244,-21.77252 l 2.057855,-2.13233 -0.46239,-0.92032 c -1.475005,-2.93572 -2.786455,-7.04969 -3.320105,-10.41507 -0.82088,-5.17675 -0.51084,-11.12405 0.82599,-15.84477 0.16013,-0.56545 0.309,-1.12091 0.33082,-1.23435 0.10689,-0.55572 -11.91755,-7.463435 -18.64747,-10.712475 -11.6367,-5.61793 -22.43848,-9.558 -34.24683,-12.49193 l -1.5292,-0.37995 -0.95032,0.75576 c -3.72816,2.96485 -8.31409,4.88792 -13.28746,5.57196 -1.6505,0.22701 -5.29197,0.19726 -6.95476,-0.0568 -5.96373,-0.91128 -11.18907,-3.52118 -15.3000804,-7.64193 -3.94459,-3.95393 -6.43826,-8.81735 -7.50222997,-14.63169 -0.31405,-1.7162 -0.37778,-5.67515 -0.12363,-7.68047 C 1.7285046,47.281592 11.677765,37.590878 24.139585,36.3217 c 1.8768,-0.191145 5.44851,-0.06867 7.19456,0.246705 5.39916,0.975202 10.14723,3.38781 14.02498,7.126419 1.6269,1.56853 2.65891,2.796371 3.77869,4.495739 2.29054,3.476105 3.68492,7.222711 4.2539,11.430002 0.19208,1.42027 0.23061,4.97602 0.0693,6.39147 -0.10894,0.9558 -0.36243,0.65987 2.03523,2.37596 10.77538,7.71231 24.47426,15.07762 37.73912,20.29074 3.62158,1.42329 12.589925,4.50612 13.108885,4.50612 0.0538,0 0.48727,-0.41748 0.96327,-0.92773 5.62212,-6.02659 13.61418,-10.17092 21.79023,-11.29943 0.99785,-0.13773 1.98993,-0.27548 2.20462,-0.30612 0.38856,-0.0554 0.39287,-0.0638 0.94555,-1.83478 0.30536,-0.9785 0.63172,-2.02401 0.72523,-2.32337 0.0935,-0.29936 0.44671,-1.57843 0.7849,-2.84238 2.77705,-10.37883 4.377,-21.288758 4.67395,-31.871154 l 0.0764,-2.721624 -1.28382,-0.755303 c -3.49492,-2.056186 -6.23221,-5.023991 -8.0045,-8.678593 -1.47859,-3.048972 -2.11874,-5.800511 -2.11732,-9.100871 0.004,-8.899069 5.64206,-16.7355374 14.06976,-19.55521243 2.4498,-0.819634 3.43696,-0.965519 6.5519,-0.968247997235 3.05664,-0.0027000028 4.00293,0.131150997235 6.34953,0.897982997235 6.08433,1.98826603 10.96188,6.70513203 13.04938,12.61948943 2.49327,7.063953 1.13524,14.688002 -3.62655,20.359671 -2.91487,3.471835 -7.27912,6.036122 -11.76753,6.91419 l -1.07517,0.210335 -0.5306,1.749904 c -1.66895,5.504039 -3.19604,12.34625 -4.26432,19.106573 -0.81187,5.13765 -1.33272,11.31831 -1.51051,17.92444 l -0.0543,2.01921 1.23125,0.38249 c 4.5395,1.4102 9.55621,4.1296 12.90315,6.99439 1.62612,1.39186 4.54546,4.33826 5.2514,5.30006 0.01,0.0132 0.8323,-0.15918 1.82807,-0.38299 13.53583,-3.04215 25.96901,-7.9005 36.92218,-14.4276 2.07446,-1.23618 2.36167,-1.44599 2.58679,-1.88958 0.96881,-1.90903 2.83624,-3.68011 4.87212,-4.62074 3.71147,-1.71481 8.02856,-1.15034 11.24581,1.47042 2.48697,2.02587 4.01725,5.62896 3.76208,8.85793 -0.20083,2.54127 -1.16454,4.71299 -2.90105,6.53745 -2.83334,2.97688 -7.13078,4.04163 -10.99222,2.72348 l -0.86804,-0.29632 -2.29809,0.25466 c -10.79442,1.19618 -22.10695,4.09465 -32.75506,8.392435 -2.07645,0.83809 -5.75513,2.43537 -5.86735,2.54759 -0.0283,0.0283 0.17591,0.6582 0.45385,1.39974 0.91034,2.42883 1.65493,5.53617 2.08512,8.7015 0.23858,1.75549 0.19919,6.93814 -0.0676,8.89 -0.11819,0.86481 -0.25396,1.61316 -0.3017,1.663 -0.0477,0.0498 -0.87043,0.28303 -1.82821,0.51821 -6.63876,1.63011 -12.69759,4.58596 -16.9943,8.29082 -5.99666,5.17063 -9.03407,11.607 -9.29871,19.70434 l -0.0533,1.63158 -1.00874,0.20568 c -8.44966,1.72279 -16.86675,0.63244 -24.43666,-3.16555 -3.36964,-1.69061 -6.36823,-3.79634 -9.00723,-6.32525 l -0.98753,-0.94634 -1.55247,1.11514 c -4.22442,3.03434 -8.132645,6.17673 -12.377715,9.95221 -2.11697,1.8828 -8.12917,7.89718 -9.98825,9.99188 -1.42337,1.60377 -4.13648,4.82437 -4.81287,5.71311 l -0.34375,0.45168 0.22017,1.12071 c 0.32396,1.64905 0.29677,4.68646 -0.0569,6.35263 -0.66251,3.12129 -2.09199,5.88038 -4.21693,8.1392 -3.6384,3.86765 -9.04561,5.844 -14.18435,5.18442 z"
     id="path253" /></svg>
