# Blender 3.6.4
# www.blender.org
mtllib F.mtl
o path163
v 20.551104 0.500000 -0.164304
v 20.551104 0.500000 -3.063613
v 20.551104 0.500000 -5.962924
v 22.636171 0.500000 -5.962924
v 24.721239 0.500000 -5.962924
v 24.721239 0.500000 -5.459737
v 24.721239 0.500000 -4.956552
v 23.175413 0.500000 -4.956552
v 21.629587 0.500000 -4.956552
v 21.629587 0.500000 -4.141870
v 21.629587 0.500000 -3.327188
v 23.091532 0.500000 -3.327188
v 24.553474 0.500000 -3.327188
v 24.553474 0.500000 -2.824001
v 24.553474 0.500000 -2.320815
v 23.091532 0.500000 -2.320815
v 21.629587 0.500000 -2.320815
v 21.629587 0.500000 -1.242559
v 21.629587 0.500000 -0.164304
v 21.090345 0.500000 -0.164304
v 20.551104 -0.500000 -0.164304
v 20.551104 -0.500000 -3.063613
v 20.551104 -0.500000 -5.962924
v 22.636171 -0.500000 -5.962924
v 24.721239 -0.500000 -5.962924
v 24.721239 -0.500000 -5.459737
v 24.721239 -0.500000 -4.956552
v 23.175413 -0.500000 -4.956552
v 21.629587 -0.500000 -4.956552
v 21.629587 -0.500000 -4.141870
v 21.629587 -0.500000 -3.327188
v 23.091532 -0.500000 -3.327188
v 24.553474 -0.500000 -3.327188
v 24.553474 -0.500000 -2.824001
v 24.553474 -0.500000 -2.320815
v 23.091532 -0.500000 -2.320815
v 21.629587 -0.500000 -2.320815
v 21.629587 -0.500000 -1.242559
v 21.629587 -0.500000 -0.164304
v 21.090345 -0.500000 -0.164304
v 20.551104 -0.500000 -0.164304
v 20.551104 0.500000 -0.164304
v 20.551104 -0.500000 -3.063613
v 20.551104 0.500000 -3.063613
v 20.551104 -0.500000 -5.962924
v 20.551104 0.500000 -5.962924
v 22.636171 -0.500000 -5.962924
v 22.636171 0.500000 -5.962924
v 24.721239 -0.500000 -5.962924
v 24.721239 0.500000 -5.962924
v 24.721239 -0.500000 -5.459737
v 24.721239 0.500000 -5.459737
v 24.721239 -0.500000 -4.956552
v 24.721239 0.500000 -4.956552
v 23.175413 -0.500000 -4.956552
v 23.175413 0.500000 -4.956552
v 21.629587 -0.500000 -4.956552
v 21.629587 0.500000 -4.956552
v 21.629587 -0.500000 -4.141870
v 21.629587 0.500000 -4.141870
v 21.629587 -0.500000 -3.327188
v 21.629587 0.500000 -3.327188
v 23.091532 -0.500000 -3.327188
v 23.091532 0.500000 -3.327188
v 24.553474 -0.500000 -3.327188
v 24.553474 0.500000 -3.327188
v 24.553474 -0.500000 -2.824001
v 24.553474 0.500000 -2.824001
v 24.553474 -0.500000 -2.320815
v 24.553474 0.500000 -2.320815
v 23.091532 -0.500000 -2.320815
v 23.091532 0.500000 -2.320815
v 21.629587 -0.500000 -2.320815
v 21.629587 0.500000 -2.320815
v 21.629587 -0.500000 -1.242559
v 21.629587 0.500000 -1.242559
v 21.629587 -0.500000 -0.164304
v 21.629587 0.500000 -0.164304
v 21.090345 -0.500000 -0.164304
v 21.090345 0.500000 -0.164304
vn -0.0000 1.0000 -0.0000
vn -0.0000 -1.0000 -0.0000
vn -1.0000 -0.0000 -0.0000
vn -0.7071 -0.0000 0.7071
vn -0.7071 -0.0000 -0.7071
vn -0.0000 -0.0000 -1.0000
vn 0.7071 -0.0000 -0.7071
vn 1.0000 -0.0000 -0.0000
vn 0.7071 -0.0000 0.7071
vn -0.0000 -0.0000 1.0000
vt 0.052632 0.000000
vt 0.421053 0.000000
vt 0.105263 0.000000
vt 0.157895 0.000000
vt 0.210526 0.000000
vt 0.263158 0.000000
vt 0.315789 0.000000
vt 0.473684 0.000000
vt 0.368421 0.000000
vt 0.526316 0.000000
vt 0.578947 0.000000
vt 0.631579 0.000000
vt 0.684211 0.000000
vt 0.000000 0.000000
vt 0.842105 0.000000
vt 0.736842 0.000000
vt 0.894737 0.000000
vt 0.789474 0.000000
vt 0.947368 0.000000
vt 1.000000 0.000000
vt 0.050000 1.000000
vt 0.000000 1.000000
vt 0.100000 1.000000
vt 0.050000 0.000000
vt 0.150000 1.000000
vt 0.100000 0.000000
vt 0.200000 1.000000
vt 0.150000 0.000000
vt 0.250000 1.000000
vt 0.200000 0.000000
vt 0.300000 1.000000
vt 0.250000 0.000000
vt 0.350000 1.000000
vt 0.300000 0.000000
vt 0.400000 1.000000
vt 0.350000 0.000000
vt 0.450000 1.000000
vt 0.400000 0.000000
vt 0.500000 1.000000
vt 0.450000 0.000000
vt 0.550000 1.000000
vt 0.500000 0.000000
vt 0.600000 1.000000
vt 0.550000 0.000000
vt 0.650000 1.000000
vt 0.600000 0.000000
vt 0.700000 1.000000
vt 0.650000 0.000000
vt 0.750000 1.000000
vt 0.700000 0.000000
vt 0.800000 1.000000
vt 0.750000 0.000000
vt 0.850000 1.000000
vt 0.800000 0.000000
vt 0.900000 1.000000
vt 0.850000 0.000000
vt 0.950000 1.000000
vt 0.900000 0.000000
vt 1.000000 1.000000
vt 0.950000 0.000000
s 0
usemtl SVGMat.004
f 2/1/1 9/2/1 3/3/1
f 9/2/1 4/4/1 3/3/1
f 9/2/1 5/5/1 4/4/1
f 9/2/1 6/6/1 5/5/1
f 9/2/1 7/7/1 6/6/1
f 2/1/1 10/8/1 9/2/1
f 8/9/1 7/7/1 9/2/1
f 2/1/1 11/10/1 10/8/1
f 2/1/1 12/11/1 11/10/1
f 2/1/1 13/12/1 12/11/1
f 2/1/1 14/13/1 13/12/1
f 1/14/1 17/15/1 2/1/1
f 17/15/1 14/13/1 2/1/1
f 17/15/1 15/16/1 14/13/1
f 1/14/1 18/17/1 17/15/1
f 16/18/2 15/16/2 17/15/2
f 1/14/1 19/19/1 18/17/1
f 20/20/1 19/19/1 1/14/1
f 22/1/2 23/3/2 29/2/2
f 29/2/2 23/3/2 24/4/2
f 29/2/2 24/4/2 25/5/2
f 29/2/2 25/5/2 26/6/2
f 29/2/2 26/6/2 27/7/2
f 22/1/2 29/2/2 30/8/2
f 28/9/1 29/2/1 27/7/1
f 22/1/2 30/8/2 31/10/2
f 22/1/2 31/10/2 32/11/2
f 22/1/2 32/11/2 33/12/2
f 22/1/2 33/12/2 34/13/2
f 21/14/2 22/1/2 37/15/2
f 37/15/2 22/1/2 34/13/2
f 37/15/2 34/13/2 35/16/2
f 21/14/2 37/15/2 38/17/2
f 36/18/1 37/15/1 35/16/1
f 21/14/2 38/17/2 39/19/2
f 40/20/1 21/14/1 39/19/1
s 1
f 44/21/3 41/14/4 42/22/4
f 46/23/5 43/24/3 44/21/3
f 48/25/6 45/26/5 46/23/5
f 50/27/7 47/28/6 48/25/6
f 52/29/8 49/30/7 50/27/7
f 54/31/9 51/32/8 52/29/8
f 56/33/10 53/34/9 54/31/9
f 58/35/9 55/36/10 56/33/10
f 60/37/8 57/38/9 58/35/9
f 62/39/7 59/40/8 60/37/8
f 64/41/6 61/42/7 62/39/7
f 66/43/7 63/44/6 64/41/6
f 68/45/8 65/46/7 66/43/7
f 70/47/9 67/48/8 68/45/8
f 72/49/10 69/50/9 70/47/9
f 74/51/9 71/52/10 72/49/10
f 76/53/8 73/54/9 74/51/9
f 78/55/9 75/56/8 76/53/8
f 80/57/10 77/58/9 78/55/9
f 42/59/4 79/60/10 80/57/10
f 44/21/3 43/24/3 41/14/4
f 46/23/5 45/26/5 43/24/3
f 48/25/6 47/28/6 45/26/5
f 50/27/7 49/30/7 47/28/6
f 52/29/8 51/32/8 49/30/7
f 54/31/9 53/34/9 51/32/8
f 56/33/10 55/36/10 53/34/9
f 58/35/9 57/38/9 55/36/10
f 60/37/8 59/40/8 57/38/9
f 62/39/7 61/42/7 59/40/8
f 64/41/6 63/44/6 61/42/7
f 66/43/7 65/46/7 63/44/6
f 68/45/8 67/48/8 65/46/7
f 70/47/9 69/50/9 67/48/8
f 72/49/10 71/52/10 69/50/9
f 74/51/9 73/54/9 71/52/10
f 76/53/8 75/56/8 73/54/9
f 78/55/9 77/58/9 75/56/8
f 80/57/10 79/60/10 77/58/9
f 42/59/4 41/20/4 79/60/10
